<?xml version="1.0" encoding="UTF-8" standalone="no"?>
<!DOCTYPE svg PUBLIC "-//W3C//DTD SVG 1.1//EN" 
  "http://www.w3.org/Graphics/SVG/1.1/DTD/svg11.dtd">
<svg width="25" height="87"
     xmlns="http://www.w3.org/2000/svg" version="1.1">
 <path d="  M 14,77  L 14,76  L 15,76  L 15,75  L 16,75  L 16,74  L 17,74  L 17,73  L 18,73  L 18,72  L 19,72  L 19,71  L 20,71  L 20,69  L 22,69  L 22,68  L 23,68  L 23,69  L 24,69  L 24,70  L 23,70  L 23,71  L 22,71  L 22,72  L 21,72  L 21,73  L 20,73  L 20,74  L 21,74  L 21,75  L 20,75  L 20,76  L 19,76  L 19,77  L 18,77  L 18,76  L 17,76  L 17,77  L 16,77  L 16,78  L 15,78  L 15,79  L 14,79  L 14,80  L 13,80  L 13,81  L 12,81  L 12,82  L 11,82  L 11,81  L 10,81  L 10,80  L 11,80  L 11,79  L 9,79  L 9,78  L 7,78  L 7,77  L 6,77  L 6,76  L 7,76  L 7,75  L 5,75  L 5,73  L 4,73  L 4,74  L 3,74  L 3,73  L 2,73  L 2,72  L 3,72  L 3,71  L 1,71  L 1,70  L 2,70  L 2,68  L 3,68  L 3,69  L 4,69  L 4,70  L 5,70  L 5,71  L 6,71  L 6,72  L 7,72  L 7,73  L 9,73  L 9,75  L 10,75  L 10,76  L 11,76  L 11,77  L 12,77  L 12,78  L 13,78  L 13,77  Z  M 0,0  L 0,64  L 1,64  L 1,65  L 3,65  L 3,66  L 1,66  L 1,67  L 0,67  L 0,69  L 1,69  L 1,70  L 0,70  L 0,79  L 1,79  L 1,80  L 0,80  L 0,87  L 25,87  L 25,0  Z  M 13,66  L 14,66  L 14,67  L 15,67  L 15,68  L 14,68  L 14,69  L 13,69  L 13,71  L 12,71  L 12,72  L 11,72  L 11,71  L 10,71  L 10,70  L 11,70  L 11,69  L 12,69  L 12,5  L 13,5  L 13,7  L 14,7  L 14,8  L 13,8  Z  M 9,67  L 9,68  L 7,68  L 7,67  Z  M 12,73  L 12,74  L 11,74  L 11,73  Z  M 11,3  L 11,2  L 12,2  L 12,3  Z  M 10,68  L 10,69  L 9,69  L 9,68  Z  M 13,75  L 13,76  L 12,76  L 12,75  Z  M 23,66  L 23,67  L 22,67  L 22,66  Z  M 7,79  L 6,79  L 6,78  L 7,78  Z  M 21,65  L 22,65  L 22,66  L 21,66  Z  M 20,65  L 19,65  L 19,64  L 20,64  Z  M 15,85  L 14,85  L 14,84  L 15,84  Z  M 15,83  L 16,83  L 16,84  L 15,84  Z  M 15,79  L 16,79  L 16,80  L 15,80  Z  M 13,83  L 14,83  L 14,84  L 13,84  Z  M 12,4  L 12,3  L 13,3  L 13,4  Z  M 23,73  L 23,74  L 22,74  L 22,73  Z  M 9,84  L 9,83  L 10,83  L 10,84  Z  M 17,78  L 18,78  L 18,79  L 17,79  Z  M 15,69  L 15,70  L 14,70  L 14,69  Z  M 11,67  L 11,68  L 10,68  L 10,67  Z  M 13,74  L 13,73  L 14,73  L 14,74  Z  M 12,84  L 13,84  L 13,85  L 12,85  Z  M 5,67  L 5,66  L 6,66  L 6,67  Z  M 11,73  L 10,73  L 10,72  L 11,72  Z  M 18,66  L 19,66  L 19,67  L 18,67  Z  M 2,74  L 1,74  L 1,73  L 2,73  Z  M 23,67  L 24,67  L 24,68  L 23,68  Z  M 13,2  L 13,1  L 14,1  L 14,2  Z  M 11,5  L 10,5  L 10,4  L 11,4  Z  M 10,3  L 10,4  L 9,4  L 9,3  Z  M 8,5  L 8,4  L 9,4  L 9,5  Z  M 21,67  L 20,67  L 20,66  L 21,66  Z  M 4,67  L 3,67  L 3,66  L 4,66  Z  M 11,83  L 10,83  L 10,82  L 11,82  Z  " style="fill:rgb(255, 255, 255); fill-opacity:1.000; stroke:none;" />
 <path d="  M 0,66  L 1,66  L 1,65  L 0,65  Z  " style="fill:#0000; fill-opacity:1.000; stroke:none;" />
 <path d="  M 3,73  L 4,73  L 4,72  L 3,72  Z  " style="fill:#0000; fill-opacity:1.000; stroke:none;" />
 <path d="  M 8,77  L 8,76  L 7,76  L 7,77  Z  " style="fill:#0000; fill-opacity:1.000; stroke:none;" />
 <path d="  M 12,70  L 11,70  L 11,71  L 12,71  Z  " style="fill:#0000; fill-opacity:1.000; stroke:none;" />
 <path d="  M 11,80  L 11,81  L 12,81  L 12,80  Z  " style="fill:#0000; fill-opacity:1.000; stroke:none;" />
 <path d="  M 14,68  L 14,67  L 13,67  L 13,68  Z  " style="fill:#0000; fill-opacity:1.000; stroke:none;" />
 <path d="  M 18,76  L 19,76  L 19,75  L 18,75  Z  " style="fill:#0000; fill-opacity:1.000; stroke:none;" />
 <path d="  M 19,75  L 20,75  L 20,74  L 19,74  Z  " style="fill:#0000; fill-opacity:1.000; stroke:none;" />
 <path d="  M 1,64  L 0,64  L 0,65  L 1,65  Z  " style="fill:rgb(254, 254, 254); fill-opacity:1.000; stroke:none;" />
 <path d="  M 1,67  L 1,66  L 0,66  L 0,67  Z  " style="fill:rgb(254, 254, 254); fill-opacity:1.000; stroke:none;" />
 <path d="  M 1,69  L 0,69  L 0,70  L 1,70  Z  " style="fill:rgb(254, 254, 254); fill-opacity:1.000; stroke:none;" />
 <path d="  M 0,79  L 0,80  L 1,80  L 1,79  Z  " style="fill:rgb(254, 254, 254); fill-opacity:1.000; stroke:none;" />
 <path d="  M 3,66  L 3,65  L 1,65  L 1,66  Z  " style="fill:rgb(254, 254, 254); fill-opacity:1.000; stroke:none;" />
 <path d="  M 1,70  L 1,71  L 2,71  L 2,70  Z  " style="fill:rgb(254, 254, 254); fill-opacity:1.000; stroke:none;" />
 <path d="  M 2,73  L 1,73  L 1,74  L 2,74  Z  " style="fill:rgb(254, 254, 254); fill-opacity:1.000; stroke:none;" />
 <path d="  M 2,68  L 2,69  L 3,69  L 3,68  Z  " style="fill:rgb(254, 254, 254); fill-opacity:1.000; stroke:none;" />
 <path d="  M 2,73  L 3,73  L 3,72  L 2,72  Z  " style="fill:rgb(254, 254, 254); fill-opacity:1.000; stroke:none;" />
 <path d="  M 4,66  L 3,66  L 3,67  L 4,67  Z  " style="fill:rgb(254, 254, 254); fill-opacity:1.000; stroke:none;" />
 <path d="  M 3,74  L 4,74  L 4,73  L 3,73  Z  " style="fill:rgb(254, 254, 254); fill-opacity:1.000; stroke:none;" />
 <path d="  M 6,67  L 6,66  L 5,66  L 5,67  Z  " style="fill:rgb(254, 254, 254); fill-opacity:1.000; stroke:none;" />
 <path d="  M 5,74  L 5,75  L 6,75  L 6,74  Z  " style="fill:rgb(254, 254, 254); fill-opacity:1.000; stroke:none;" />
 <path d="  M 6,77  L 7,77  L 7,76  L 6,76  Z  " style="fill:rgb(254, 254, 254); fill-opacity:1.000; stroke:none;" />
 <path d="  M 6,78  L 6,79  L 7,79  L 7,78  Z  " style="fill:rgb(254, 254, 254); fill-opacity:1.000; stroke:none;" />
 <path d="  M 9,68  L 9,67  L 7,67  L 7,68  Z  " style="fill:rgb(254, 254, 254); fill-opacity:1.000; stroke:none;" />
 <path d="  M 7,77  L 7,78  L 9,78  L 9,77  Z  " style="fill:rgb(254, 254, 254); fill-opacity:1.000; stroke:none;" />
 <path d="  M 8,5  L 9,5  L 9,4  L 8,4  Z  " style="fill:rgb(254, 254, 254); fill-opacity:1.000; stroke:none;" />
 <path d="  M 9,73  L 8,73  L 8,74  L 9,74  Z  " style="fill:rgb(254, 254, 254); fill-opacity:1.000; stroke:none;" />
 <path d="  M 9,4  L 10,4  L 10,3  L 9,3  Z  " style="fill:rgb(254, 254, 254); fill-opacity:1.000; stroke:none;" />
 <path d="  M 10,69  L 10,68  L 9,68  L 9,69  Z  " style="fill:rgb(254, 254, 254); fill-opacity:1.000; stroke:none;" />
 <path d="  M 9,78  L 9,79  L 10,79  L 10,78  Z  " style="fill:rgb(254, 254, 254); fill-opacity:1.000; stroke:none;" />
 <path d="  M 9,83  L 9,84  L 10,84  L 10,83  Z  " style="fill:rgb(254, 254, 254); fill-opacity:1.000; stroke:none;" />
 <path d="  M 11,5  L 11,4  L 10,4  L 10,5  Z  " style="fill:rgb(254, 254, 254); fill-opacity:1.000; stroke:none;" />
 <path d="  M 10,68  L 11,68  L 11,67  L 10,67  Z  " style="fill:rgb(254, 254, 254); fill-opacity:1.000; stroke:none;" />
 <path d="  M 10,71  L 11,71  L 11,70  L 10,70  Z  " style="fill:rgb(254, 254, 254); fill-opacity:1.000; stroke:none;" />
 <path d="  M 10,73  L 11,73  L 11,72  L 10,72  Z  " style="fill:rgb(254, 254, 254); fill-opacity:1.000; stroke:none;" />
 <path d="  M 11,81  L 11,80  L 10,80  L 10,81  Z  " style="fill:rgb(254, 254, 254); fill-opacity:1.000; stroke:none;" />
 <path d="  M 11,82  L 10,82  L 10,83  L 11,83  Z  " style="fill:rgb(254, 254, 254); fill-opacity:1.000; stroke:none;" />
 <path d="  M 11,2  L 11,3  L 12,3  L 12,2  Z  " style="fill:rgb(254, 254, 254); fill-opacity:1.000; stroke:none;" />
 <path d="  M 12,70  L 12,69  L 11,69  L 11,70  Z  " style="fill:rgb(254, 254, 254); fill-opacity:1.000; stroke:none;" />
 <path d="  M 11,72  L 12,72  L 12,71  L 11,71  Z  " style="fill:rgb(254, 254, 254); fill-opacity:1.000; stroke:none;" />
 <path d="  M 12,74  L 12,73  L 11,73  L 11,74  Z  " style="fill:rgb(254, 254, 254); fill-opacity:1.000; stroke:none;" />
 <path d="  M 12,82  L 12,81  L 11,81  L 11,82  Z  " style="fill:rgb(254, 254, 254); fill-opacity:1.000; stroke:none;" />
 <path d="  M 13,3  L 12,3  L 12,4  L 13,4  Z  " style="fill:rgb(254, 254, 254); fill-opacity:1.000; stroke:none;" />
 <path d="  M 12,70  L 12,71  L 13,71  L 13,70  Z  " style="fill:rgb(254, 254, 254); fill-opacity:1.000; stroke:none;" />
 <path d="  M 12,75  L 12,76  L 13,76  L 13,75  Z  " style="fill:rgb(254, 254, 254); fill-opacity:1.000; stroke:none;" />
 <path d="  M 12,85  L 13,85  L 13,84  L 12,84  Z  " style="fill:rgb(254, 254, 254); fill-opacity:1.000; stroke:none;" />
 <path d="  M 13,2  L 14,2  L 14,1  L 13,1  Z  " style="fill:rgb(254, 254, 254); fill-opacity:1.000; stroke:none;" />
 <path d="  M 13,7  L 13,8  L 14,8  L 14,7  Z  " style="fill:rgb(254, 254, 254); fill-opacity:1.000; stroke:none;" />
 <path d="  M 13,66  L 13,67  L 14,67  L 14,66  Z  " style="fill:rgb(254, 254, 254); fill-opacity:1.000; stroke:none;" />
 <path d="  M 13,69  L 14,69  L 14,68  L 13,68  Z  " style="fill:rgb(254, 254, 254); fill-opacity:1.000; stroke:none;" />
 <path d="  M 13,74  L 14,74  L 14,73  L 13,73  Z  " style="fill:rgb(254, 254, 254); fill-opacity:1.000; stroke:none;" />
 <path d="  M 13,83  L 13,84  L 14,84  L 14,83  Z  " style="fill:rgb(254, 254, 254); fill-opacity:1.000; stroke:none;" />
 <path d="  M 14,67  L 14,68  L 15,68  L 15,67  Z  " style="fill:rgb(254, 254, 254); fill-opacity:1.000; stroke:none;" />
 <path d="  M 14,70  L 15,70  L 15,69  L 14,69  Z  " style="fill:rgb(254, 254, 254); fill-opacity:1.000; stroke:none;" />
 <path d="  M 14,84  L 14,85  L 15,85  L 15,84  Z  " style="fill:rgb(254, 254, 254); fill-opacity:1.000; stroke:none;" />
 <path d="  M 16,79  L 15,79  L 15,80  L 16,80  Z  " style="fill:rgb(254, 254, 254); fill-opacity:1.000; stroke:none;" />
 <path d="  M 15,83  L 15,84  L 16,84  L 16,83  Z  " style="fill:rgb(254, 254, 254); fill-opacity:1.000; stroke:none;" />
 <path d="  M 18,79  L 18,78  L 17,78  L 17,79  Z  " style="fill:rgb(254, 254, 254); fill-opacity:1.000; stroke:none;" />
 <path d="  M 18,67  L 19,67  L 19,66  L 18,66  Z  " style="fill:rgb(254, 254, 254); fill-opacity:1.000; stroke:none;" />
 <path d="  M 18,77  L 19,77  L 19,76  L 18,76  Z  " style="fill:rgb(254, 254, 254); fill-opacity:1.000; stroke:none;" />
 <path d="  M 20,65  L 20,64  L 19,64  L 19,65  Z  " style="fill:rgb(254, 254, 254); fill-opacity:1.000; stroke:none;" />
 <path d="  M 20,66  L 20,67  L 21,67  L 21,66  Z  " style="fill:rgb(254, 254, 254); fill-opacity:1.000; stroke:none;" />
 <path d="  M 20,69  L 20,70  L 21,70  L 21,69  Z  " style="fill:rgb(254, 254, 254); fill-opacity:1.000; stroke:none;" />
 <path d="  M 20,75  L 21,75  L 21,74  L 20,74  Z  " style="fill:rgb(254, 254, 254); fill-opacity:1.000; stroke:none;" />
 <path d="  M 21,65  L 21,66  L 22,66  L 22,65  Z  " style="fill:rgb(254, 254, 254); fill-opacity:1.000; stroke:none;" />
 <path d="  M 22,66  L 22,67  L 23,67  L 23,66  Z  " style="fill:rgb(254, 254, 254); fill-opacity:1.000; stroke:none;" />
 <path d="  M 23,69  L 23,68  L 22,68  L 22,69  Z  " style="fill:rgb(254, 254, 254); fill-opacity:1.000; stroke:none;" />
 <path d="  M 22,73  L 22,74  L 23,74  L 23,73  Z  " style="fill:rgb(254, 254, 254); fill-opacity:1.000; stroke:none;" />
 <path d="  M 24,67  L 23,67  L 23,68  L 24,68  Z  " style="fill:rgb(254, 254, 254); fill-opacity:1.000; stroke:none;" />
 <path d="  M 24,70  L 24,69  L 23,69  L 23,70  Z  " style="fill:rgb(254, 254, 254); fill-opacity:1.000; stroke:none;" />
 <path d="  M 3,70  L 3,69  L 2,69  L 2,70  Z  " style="fill:rgb(187, 187, 187); fill-opacity:1.000; stroke:none;" />
 <path d="  M 2,70  L 2,71  L 3,71  L 3,70  Z  " style="fill:rgb(174, 174, 174); fill-opacity:1.000; stroke:none;" />
 <path d="  M 4,71  L 3,71  L 3,72  L 4,72  Z  " style="fill:rgb(174, 174, 174); fill-opacity:1.000; stroke:none;" />
 <path d="  M 6,73  L 5,73  L 5,74  L 6,74  Z  " style="fill:rgb(174, 174, 174); fill-opacity:1.000; stroke:none;" />
 <path d="  M 6,75  L 7,75  L 7,74  L 6,74  Z  " style="fill:rgb(174, 174, 174); fill-opacity:1.000; stroke:none;" />
 <path d="  M 19,75  L 19,74  L 18,74  L 18,75  Z  " style="fill:rgb(174, 174, 174); fill-opacity:1.000; stroke:none;" />
 <path d="  M 4,70  L 4,69  L 3,69  L 3,70  Z  " style="fill:rgb(214, 214, 214); fill-opacity:1.000; stroke:none;" />
 <path d="  M 4,71  L 5,71  L 5,70  L 4,70  Z  " style="fill:rgb(214, 214, 214); fill-opacity:1.000; stroke:none;" />
 <path d="  M 7,72  L 6,72  L 6,73  L 7,73  Z  " style="fill:rgb(214, 214, 214); fill-opacity:1.000; stroke:none;" />
 <path d="  M 8,73  L 7,73  L 7,74  L 8,74  Z  " style="fill:rgb(214, 214, 214); fill-opacity:1.000; stroke:none;" />
 <path d="  M 9,74  L 8,74  L 8,75  L 9,75  Z  " style="fill:rgb(214, 214, 214); fill-opacity:1.000; stroke:none;" />
 <path d="  M 10,76  L 10,77  L 11,77  L 11,76  Z  " style="fill:rgb(214, 214, 214); fill-opacity:1.000; stroke:none;" />
 <path d="  M 12,77  L 11,77  L 11,78  L 12,78  Z  " style="fill:rgb(214, 214, 214); fill-opacity:1.000; stroke:none;" />
 <path d="  M 14,77  L 13,77  L 13,78  L 14,78  Z  " style="fill:rgb(214, 214, 214); fill-opacity:1.000; stroke:none;" />
 <path d="  M 17,75  L 17,74  L 16,74  L 16,75  Z  " style="fill:rgb(214, 214, 214); fill-opacity:1.000; stroke:none;" />
 <path d="  M 18,73  L 17,73  L 17,74  L 18,74  Z  " style="fill:rgb(214, 214, 214); fill-opacity:1.000; stroke:none;" />
 <path d="  M 19,72  L 18,72  L 18,73  L 19,73  Z  " style="fill:rgb(214, 214, 214); fill-opacity:1.000; stroke:none;" />
 <path d="  M 20,72  L 20,71  L 19,71  L 19,72  Z  " style="fill:rgb(214, 214, 214); fill-opacity:1.000; stroke:none;" />
 <path d="  M 21,71  L 21,70  L 20,70  L 20,71  Z  " style="fill:rgb(214, 214, 214); fill-opacity:1.000; stroke:none;" />
 <path d="  M 22,69  L 21,69  L 21,70  L 22,70  Z  " style="fill:rgb(214, 214, 214); fill-opacity:1.000; stroke:none;" />
 <path d="  M 4,71  L 4,70  L 3,70  L 3,71  Z  " style="fill:rgb(51, 51, 51); fill-opacity:1.000; stroke:none;" />
 <path d="  M 5,72  L 5,71  L 4,71  L 4,72  Z  " style="fill:rgb(51, 51, 51); fill-opacity:1.000; stroke:none;" />
 <path d="  M 6,73  L 6,72  L 5,72  L 5,73  Z  " style="fill:rgb(51, 51, 51); fill-opacity:1.000; stroke:none;" />
 <path d="  M 7,73  L 6,73  L 6,74  L 7,74  Z  " style="fill:rgb(51, 51, 51); fill-opacity:1.000; stroke:none;" />
 <path d="  M 7,75  L 8,75  L 8,74  L 7,74  Z  " style="fill:rgb(51, 51, 51); fill-opacity:1.000; stroke:none;" />
 <path d="  M 9,76  L 9,75  L 8,75  L 8,76  Z  " style="fill:rgb(51, 51, 51); fill-opacity:1.000; stroke:none;" />
 <path d="  M 10,77  L 10,76  L 9,76  L 9,77  Z  " style="fill:rgb(51, 51, 51); fill-opacity:1.000; stroke:none;" />
 <path d="  M 10,78  L 11,78  L 11,77  L 10,77  Z  " style="fill:rgb(51, 51, 51); fill-opacity:1.000; stroke:none;" />
 <path d="  M 11,78  L 11,79  L 12,79  L 12,78  Z  " style="fill:rgb(51, 51, 51); fill-opacity:1.000; stroke:none;" />
 <path d="  M 13,79  L 14,79  L 14,78  L 13,78  Z  " style="fill:rgb(51, 51, 51); fill-opacity:1.000; stroke:none;" />
 <path d="  M 15,76  L 15,77  L 16,77  L 16,76  Z  " style="fill:rgb(51, 51, 51); fill-opacity:1.000; stroke:none;" />
 <path d="  M 16,75  L 16,76  L 17,76  L 17,75  Z  " style="fill:rgb(51, 51, 51); fill-opacity:1.000; stroke:none;" />
 <path d="  M 19,72  L 19,73  L 20,73  L 20,72  Z  " style="fill:rgb(51, 51, 51); fill-opacity:1.000; stroke:none;" />
 <path d="  M 20,72  L 21,72  L 21,71  L 20,71  Z  " style="fill:rgb(51, 51, 51); fill-opacity:1.000; stroke:none;" />
 <path d="  M 5,73  L 5,72  L 4,72  L 4,73  Z  " style="fill:rgb(172, 172, 172); fill-opacity:1.000; stroke:none;" />
 <path d="  M 7,76  L 8,76  L 8,75  L 7,75  Z  " style="fill:rgb(172, 172, 172); fill-opacity:1.000; stroke:none;" />
 <path d="  M 13,79  L 13,78  L 12,78  L 12,79  Z  " style="fill:rgb(172, 172, 172); fill-opacity:1.000; stroke:none;" />
 <path d="  M 16,76  L 16,77  L 17,77  L 17,76  Z  " style="fill:rgb(172, 172, 172); fill-opacity:1.000; stroke:none;" />
 <path d="  M 20,73  L 21,73  L 21,72  L 20,72  Z  " style="fill:rgb(172, 172, 172); fill-opacity:1.000; stroke:none;" />
 <path d="  M 22,71  L 23,71  L 23,70  L 22,70  Z  " style="fill:rgb(172, 172, 172); fill-opacity:1.000; stroke:none;" />
 <path d="  M 5,71  L 5,72  L 6,72  L 6,71  Z  " style="fill:rgb(215, 215, 215); fill-opacity:1.000; stroke:none;" />
 <path d="  M 14,77  L 15,77  L 15,76  L 14,76  Z  " style="fill:rgb(215, 215, 215); fill-opacity:1.000; stroke:none;" />
 <path d="  M 9,76  L 8,76  L 8,77  L 9,77  Z  " style="fill:rgb(173, 173, 173); fill-opacity:1.000; stroke:none;" />
 <path d="  M 10,77  L 9,77  L 9,78  L 10,78  Z  " style="fill:rgb(173, 173, 173); fill-opacity:1.000; stroke:none;" />
 <path d="  M 10,78  L 10,79  L 11,79  L 11,78  Z  " style="fill:rgb(173, 173, 173); fill-opacity:1.000; stroke:none;" />
 <path d="  M 12,80  L 12,79  L 11,79  L 11,80  Z  " style="fill:rgb(173, 173, 173); fill-opacity:1.000; stroke:none;" />
 <path d="  M 13,79  L 13,80  L 14,80  L 14,79  Z  " style="fill:rgb(173, 173, 173); fill-opacity:1.000; stroke:none;" />
 <path d="  M 15,79  L 15,78  L 14,78  L 14,79  Z  " style="fill:rgb(173, 173, 173); fill-opacity:1.000; stroke:none;" />
 <path d="  M 15,78  L 16,78  L 16,77  L 15,77  Z  " style="fill:rgb(173, 173, 173); fill-opacity:1.000; stroke:none;" />
 <path d="  M 18,76  L 18,75  L 17,75  L 17,76  Z  " style="fill:rgb(173, 173, 173); fill-opacity:1.000; stroke:none;" />
 <path d="  M 20,74  L 20,73  L 19,73  L 19,74  Z  " style="fill:rgb(173, 173, 173); fill-opacity:1.000; stroke:none;" />
 <path d="  M 22,72  L 22,71  L 21,71  L 21,72  Z  " style="fill:rgb(173, 173, 173); fill-opacity:1.000; stroke:none;" />
 <path d="  M 10,75  L 9,75  L 9,76  L 10,76  Z  " style="fill:rgb(213, 213, 213); fill-opacity:1.000; stroke:none;" />
 <path d="  M 15,76  L 16,76  L 16,75  L 15,75  Z  " style="fill:rgb(213, 213, 213); fill-opacity:1.000; stroke:none;" />
 <path d="  M 13,6  L 13,5  L 12,5  L 12,6  Z  " style="fill:rgb(201, 201, 201); fill-opacity:1.000; stroke:none;" />
 <path d="  M 13,6  L 12,6  L 12,7  L 13,7  Z  " style="fill:rgb(37, 37, 37); fill-opacity:1.000; stroke:none;" />
 <path d="  M 12,68  L 13,68  L 13,67  L 12,67  Z  " style="fill:rgb(37, 37, 37); fill-opacity:1.000; stroke:none;" />
 <path d="  M 12,66  L 13,66  L 13,7  L 12,7  Z  " style="fill:rgb(38, 38, 38); fill-opacity:1.000; stroke:none;" />
 <path d="  M 12,70  L 13,70  L 13,68  L 12,68  Z  " style="fill:rgb(38, 38, 38); fill-opacity:1.000; stroke:none;" />
 <path d="  M 12,80  L 13,80  L 13,79  L 12,79  Z  " style="fill:rgb(38, 38, 38); fill-opacity:1.000; stroke:none;" />
 <path d="  M 13,67  L 13,66  L 12,66  L 12,67  Z  " style="fill:rgb(39, 39, 39); fill-opacity:1.000; stroke:none;" />
 <path d="  M 12,81  L 13,81  L 13,80  L 12,80  Z  " style="fill:rgb(228, 228, 228); fill-opacity:1.000; stroke:none;" />
 <path d="  M 14,78  L 15,78  L 15,77  L 14,77  Z  " style="fill:rgb(50, 50, 50); fill-opacity:1.000; stroke:none;" />
 <path d="  M 17,74  L 17,75  L 18,75  L 18,74  Z  " style="fill:rgb(50, 50, 50); fill-opacity:1.000; stroke:none;" />
 <path d="  M 18,73  L 18,74  L 19,74  L 19,73  Z  " style="fill:rgb(50, 50, 50); fill-opacity:1.000; stroke:none;" />
 <path d="  M 20,76  L 20,75  L 19,75  L 19,76  Z  " style="fill:rgb(253, 253, 253); fill-opacity:1.000; stroke:none;" />
 <path d="  M 21,70  L 21,71  L 22,71  L 22,70  Z  " style="fill:rgb(52, 52, 52); fill-opacity:1.000; stroke:none;" />
 <path d="  M 22,70  L 23,70  L 23,69  L 22,69  Z  " style="fill:rgb(188, 188, 188); fill-opacity:1.000; stroke:none;" />
</svg>
